<svg xmlns="http://www.w3.org/2000/svg" xmlns:svg="http://www.w3.org/2000/svg" id="svg8" width="323.026" height="161.044" version="1.1" viewBox="0 0 85.467 42.61"><metadata id="metadata5"/><g id="layer1" transform="translate(-77.129291,-129.16574)"><g id="g69" transform="matrix(2.5923014,0,0,2.5923014,-244.44624,-228.30929)"><circle id="circle23" cx="146.41" cy="149.281" r="2.87" style="fill:#d66661;stroke:#c93d39;stroke-width:.52181715"/><circle id="circle25" cx="150.128" cy="142.954" r="2.87" style="fill:#6bab5b;stroke:#3b972e;stroke-width:.52181715"/><circle id="circle27" cx="153.889" cy="149.237" r="2.87" style="fill:#aa7dc0;stroke:#945bb0;stroke-width:.52181715"/></g><g id="g93"><g id="g77" transform="matrix(0.24251381,0,0,0.24251381,75.140678,127.22563)"><path style="fill:#fbbc05" id="path73" d="M 158.1,33.7 H 121.7 L 96,8 70.3,33.7 H 33.9 V 70.1 L 8.2,95.9 33.9,121.6 V 158 H 70.3 L 96,183.7 121.7,158 h 36.4 V 121.6 L 183.8,95.9 158.1,70.2 Z m 0.6,62.2 c 0,34.6 -28.1,62.7 -62.7,62.7 -34.6,0 -62.7,-28.1 -62.7,-62.7 0,-34.6 28.1,-62.7 62.7,-62.7 34.6,0 62.7,28.1 62.7,62.7 z" class="st0"/><path style="fill:#fbbc05" id="path75" d="m 96,41.2 c -30.2,0 -54.7,24.5 -54.7,54.7 0,30.2 24.5,54.7 54.7,54.7 30.2,0 54.7,-24.5 54.7,-54.7 C 150.7,65.7 126.2,41.2 96,41.2 Z M 79.9,75.6 v 9 l -14.5,11.3 14.5,11.3 v 9 l -1,-0.7 L 57.4,98.7 56,97.6 v -3.4 l 1.4,-1.1 21.5,-16.7 z m 25.8,-5.2 -11.9,52.6 -0.1,0.4 h -7.4 l 0.4,-2 11.9,-52.5 0.1,-0.4 h 7.4 z m 30.3,27.2 -1.4,1.1 -21.6,16.7 -1,0.7 v -9 L 126.5,95.8 112,84.5 v -9 0 l 1,0.7 21.5,16.8 1.4,1.1 v 3.5 z" class="st0"/></g></g></g><style id="style71" type="text/css">.st0{fill:#fbbc05}</style></svg>